<?xml version="1.0" encoding="UTF-8"?>
<!-- Created with Inkscape (http://www.inkscape.org/) -->
<svg width="6.3146mm" height="6.3146mm" version="1.1" viewBox="0 0 6.3146 6.3146" xml:space="preserve" xmlns="http://www.w3.org/2000/svg"><g transform="translate(-64.973 -140.38)">
<g>
<g transform="matrix(.26458 0 0 .26458 64.955 147.51)">
<rect width="24" height="24" fill="none"/>
<path d="m21 9.02c0 1.09-0.89 1.98-1.98 1.98h-1.02v-2.14c1.72-0.44 3-1.99 3-3.84v-0.02l-2 0.02c0 1.09-0.89 1.98-1.98 1.98h-0.52l-4.5-6-4.5 6h-0.52c-1.09 0-1.98-0.89-1.98-1.98h-2c0 1.86 1.28 3.4 3 3.84v2.14h-1.02c-1.09 0-1.98-0.89-1.98-1.98h-2c0 1.86 1.28 3.4 3 3.84v9.14h7v-4c0-0.55 0.45-1 1-1s1 0.45 1 1v4h7v-9.14c1.72-0.44 3-1.99 3-3.84v-0.02zm-9-4.69 2 2.67h-4zm-4 4.67h8v2h-8zm10 11h-3v-2c0-1.65-1.35-3-3-3s-3 1.35-3 3v2h-3v-7h12z"/>
</g>
<g transform="matrix(.26458 0 0 .26458 72.917 148.66)">
<path d="m0 0h24v24h-24z" fill="none"/>
<path d="m19 13h-6v6h-2v-6h-6v-2h6v-6h2v6h6z"/></g><g transform="matrix(.26458 0 0 .26458 88.9 147.37)"><rect width="24" height="24" fill="none"/><path d="m19 3h-14c-1.1 0-2 0.9-2 2v14c0 1.1 0.9 2 2 2h14c1.1 0 2-0.9 2-2v-14c0-1.1-0.9-2-2-2zm-14 16v-14h6v14zm14 0h-6v-7h6zm0-9h-6v-5h6z"/></g><g transform="matrix(.26458 0 0 .26458 80.585 147.14)"><rect width="24" height="24" fill="none"/><path d="m5 10h14v2h2v-6c0-1.1-0.9-2-2-2h-1v-2h-2v2h-8v-2h-2v2h-1c-1.11 0-1.99 0.9-1.99 2l-0.01 14c0 1.1 0.89 2 2 2h7v-2h-7zm0-4h14v2h-14zm17.84 10.28-0.71 0.71-2.12-2.12 0.71-0.71c0.39-0.39 1.02-0.39 1.41 0l0.71 0.71c0.39 0.39 0.39 1.02 0 1.41zm-3.54-0.7 2.12 2.12-5.3 5.3h-2.12v-2.12z"/></g></g><g font-family="sans-serif" font-size="1.4111px" font-style="italic" stroke-width=".26458"><text x="64.705933" y="138.8773" style="line-height:1.25" xml:space="preserve"><tspan x="64.705933" y="138.8773" font-size="1.4111px" stroke-width=".26458">logo</tspan></text><text x="72.643433" y="138.92003" style="line-height:1.25" xml:space="preserve"><tspan x="72.643433" y="138.92003" font-size="1.4111px" stroke-width=".26458">add</tspan></text><text x="80.580933" y="138.92003" style="line-height:1.25" xml:space="preserve"><tspan x="80.580933" y="138.92003" font-size="1.4111px" stroke-width=".26458">calendar</tspan></text><text x="88.518433" y="138.92003" style="line-height:1.25" xml:space="preserve"><tspan x="88.518433" y="138.92003" font-size="1.4111px" stroke-width=".26458">dashboard</tspan></text></g><rect x="64.98" y="131.14" width="6.3146" height="6.3146" fill="none" stroke="#000" stroke-linecap="round" stroke-width=".3" style="paint-order:fill markers stroke"/><g transform="translate(.0074797 -9.2428)" fill="none" stroke="#000"><path d="m66.409 144.14c-0.10096-0.53383-0.03141-0.84921-0.0079-0.96412 0.21099-0.82511 0.98201-1.398 1.7294-1.4095 0.9749 0 1.7652 0.79032 1.7652 1.7652 1e-6 0.9749-0.79032 1.7652-1.7652 1.7652" stroke-linecap="round" stroke-width=".5" style="paint-order:fill markers stroke"/><g><path d="m66.181 144.08s-0.60362 0.70183-0.28194 1.166c0.32168 0.46412 1.8901 0.77245 2.1098 0.78975 0.62549 0.0493-0.09041-0.84624-0.40545-1.2564-0.31499-0.41012-1.4224-0.69934-1.4224-0.69934z" stroke-width=".5"/><path d="m68.629 143.25c0.08633 0.025 0.9924 0.36979 0.70054-0.0111-0.29185-0.38091-0.58392-0.30504-0.80932-0.1941-0.22539 0.11093-0.43988 0.0538-0.6708-0.0681-0.23092-0.12188-0.85661 0.10033-0.91606 0.26178-0.05946 0.16145 0.62461 0.13715 0.87587 0.0263 0.25126-0.11089 0.73344-0.0393 0.81977-0.0143z" stroke-linecap="square" stroke-width=".4"/><path d="m66.854 145.77s-0.25236-0.77936 0.40978-1.1859" stroke-width=".8"/><path d="m68.021 143.95 0.20127 0.1664 0.19137-0.14161" stroke-linecap="round" stroke-width=".43038"/><g stroke-width=".5"><path d="m66.522 142.84s-0.2368-0.83714-0.13331-1.0051 0.82201 0.12076 0.82201 0.12076"/><path d="m69.757 142.76s0.18231-0.75269 0.07881-0.92064c-0.1035-0.16795-0.82576 0.0803-0.82576 0.0803"/><path d="m66.968 142.23s0.64261-0.5682 1.3083-0.0454c0.52091-0.41219 1.135 0.12925 1.135 0.12925"/></g></g></g><g fill="none"><rect x="64.973" y="140.38" width="6.3146" height="6.3146" style="paint-order:fill markers stroke"/><g stroke="#000" stroke-linecap="round" stroke-width=".5"><path d="m66.298 144.33 1.8413-2.4489 1.8413 2.4489v1.2338h-3.6826z" stroke-linejoin="round" style="paint-order:fill markers stroke"/><path d="m67.741 141.42 0.39827 0.38019 0.39826-0.38019"/><path d="m67.344 144.91 0.79517-1.0575 0.79517 1.0575v0.64829h-1.5903z" stroke-linejoin="round" style="paint-order:fill markers stroke"/><g><path d="m69.508 143.71 1.0303 1.2987"/><path d="m65.694 145.06 1.0303-1.2987"/><path d="m67.903 143.46 0.23833 0.22752 0.23833-0.22752"/></g></g></g><rect x="72.91" y="140.42" width="6.3146" height="6.3146" fill="none" style="paint-order:fill markers stroke"/><g transform="translate(-.023836 -8.2559)" fill="none" stroke="#000" stroke-linecap="round" stroke-width=".5"><path d="m76.088 150.24 0.0064 3.1814"/><path d="m77.682 151.83-3.1814 6e-3"/></g><g transform="translate(-.25 -9.9722)" fill="none" stroke="#000"><g stroke-linecap="round" stroke-linejoin="round"><rect x="82.021" y="141.55" width="3.9688" height="3.9688" stroke-width=".5" style="paint-order:fill markers stroke"/><path d="m82.718 141.19h0.19305v0.16388h-0.19305z" stroke-width=".5" style="paint-order:fill markers stroke"/><path d="m85.099 141.19h0.19305v0.16388h-0.19305z" stroke-width=".5" style="paint-order:fill markers stroke"/></g><g stroke-width=".5"><path d="m82.021 142.88h3.9688"/><path d="m84.681 142.88v2.6458"/><path d="m83.329 142.88v2.6458"/><path d="m82.021 144.21h3.9688"/></g></g><rect x="80.848" y="140.42" width="6.3146" height="6.3146" fill="none" style="paint-order:fill markers stroke"/><path d="m85.99 143.58v1.9844h-3.9688v-3.9688h3.9688v0.99219" fill="none" stroke="#000" stroke-linejoin="round" stroke-width=".5" style="paint-order:fill markers stroke"/><g transform="translate(.081942)" fill="none" stroke="#000" stroke-linecap="round" stroke-linejoin="round" stroke-width=".5"><path d="m82.636 141.27h0.19305v0.16388h-0.19305z" style="paint-order:fill markers stroke"/><path d="m85.017 141.27h0.19305v0.16388h-0.19305z" style="paint-order:fill markers stroke"/></g><a transform="translate(-.15046 -.12868)"><path d="m83.813 144.73c0.37151-0.2375 0.59451-0.54084 0.59451-0.54084v-0.47506l1.0076-0.95012 1.2872-0.0595-0.53154 1.0097-1.0076 0.71259-0.7718-0.2331" fill="none" stroke="#000" stroke-linecap="square" stroke-linejoin="round" stroke-width=".46226"/></a><g fill="none" stroke="#000" stroke-width=".5"><path d="m82.815 142.6h1.8521"/><path d="m82.815 143.4h1.0583"/><path d="m82.815 144.2h0.52917"/></g><g fill="none"><path d="m91.546 141.7v3.8485" stroke="#000" stroke-width=".5"/><path d="m94.031 142.92-2.3793-2e-3" stroke="#000" stroke-width=".5"/><rect x="88.785" y="140.42" width="6.3146" height="6.3146" style="paint-order:fill markers stroke"/></g><g fill="none" stroke="#000"><path d="m93.927 145.56h-3.9688v-3.9688h3.9688v3.9688z" stroke-linejoin="round" stroke-width=".5" style="paint-order:fill markers stroke"/><path d="m93.927 144.21-2.3793-2e-3" stroke-width=".5"/></g></g></svg>
